<svg xmlns="http://www.w3.org/2000/svg" aria-label="KidsChores" viewBox="0 0 512 447"><title>KidsChores</title><g transform="translate(106 20)scale(.5859)"><defs><radialGradient id="d" cx="50%" cy="50%" r="50%"><stop offset="0%" stop-color="#fff" stop-opacity=".9"/><stop offset="100%" stop-color="#fff" stop-opacity="0"/></radialGradient><linearGradient id="a" x1="0" x2="0" y1="0" y2="1"><stop offset="0%" stop-color="#7ae82a"/><stop offset="100%" stop-color="#58cc02"/></linearGradient><filter id="b" width="110%" height="115%" x="-5%" y="-5%"><feDropShadow dx="0" dy="4" flood-color="#2b7a0b" flood-opacity=".25" stdDeviation="6"/></filter></defs><path fill="url(#a)" d="M246 66q10-26 20 0l46 117 125 7q28 2 7 20l-98 79 32 122q7 27-16 12l-106-68-106 68q-23 15-16-12l32-122-98-79q-21-18 7-20l125-7Z" filter="url(#b)"/><ellipse cx="222" cy="248" fill="#1a1a2e" rx="22" ry="26"/><ellipse cx="228" cy="240" fill="#fff" rx="8" ry="9"/><ellipse cx="302" cy="248" fill="#1a1a2e" rx="22" ry="26"/><ellipse cx="308" cy="240" fill="#fff" rx="8" ry="9"/><path fill="none" stroke="#1a1a2e" stroke-linecap="round" stroke-width="8" d="M222 298q20 34 40 36 20-2 40-36"/><circle cx="192" cy="290" r="16" fill="#ff9600" opacity=".25"/><circle cx="332" cy="290" r="16" fill="#ff9600" opacity=".25"/><g transform="translate(390 100)"><circle r="24" fill="url(#d)"/><path fill="none" stroke="#58cc02" stroke-linecap="round" stroke-linejoin="round" stroke-width="5" d="m-10 2 7 7L12-6"/></g><path fill="#fff" d="m130 100 2.5 7.5 7.5 2.5-7.5 2.5-2.5 7.5-2.5-7.5-7.5-2.5 7.5-2.5Z" opacity=".7"/></g><path fill="#58cc02" fill-rule="evenodd" d="M73.68 410.92q-.8 0-1.26-.22-.47-.21-.65-.68t-.18-1.26v-46.01q0-.79.21-1.26.22-.47.69-.65t1.26-.18 1.26.22.68.68q.22.47.22 1.26v19.88l24.12-21.39q.65-.57 1.11-.72.47-.14.94.07t.97.8q.87.93.79 1.58t-1 1.44l-23.91 21.17 24.27 21.53q.93.79 1 1.44.08.64-.79 1.58-.5.58-.97.79t-.94.07q-.46-.14-1.11-.72l-24.48-21.67v20.16q0 .79-.22 1.26-.21.47-.68.65t-1.33.18m43.77 0q-.72 0-1.19-.22-.46-.21-.64-.68t-.18-1.26v-30.1q0-.79.18-1.26t.64-.64q.47-.18 1.26-.18.8 0 1.23.21.43.22.61.69t.18 1.33v30.02q0 .79-.18 1.26t-.65.65-1.26.18m0-44.71q-1.01 0-1.58-.29t-.83-.94q-.25-.64-.25-1.65t.25-1.59.86-.82q.62-.26 1.62-.26 1.01 0 1.59.29.57.29.83.9.25.61.25 1.69 0 .94-.25 1.55-.26.61-.83.87-.58.25-1.66.25m29.45 44.71q-3.31 0-6.23-1.22-2.91-1.23-5.07-3.53-2.16-2.31-3.39-5.51-1.22-3.2-1.22-7.09 0-3.82 1.22-6.95 1.23-3.13 3.39-5.4t5.07-3.49 6.23-1.23q3.53 0 6.48 1.23 2.95 1.22 5.11 3.53t3.35 5.47 1.19 7.05-1.19 7.02-3.35 5.4-5.11 3.5q-2.95 1.22-6.48 1.22m.65-3.82q3.6 0 6.41-1.69 2.8-1.69 4.46-4.68t1.66-6.95q0-4.03-1.66-7.05-1.66-3.03-4.5-4.72t-6.37-1.69-6.41 1.69-4.54 4.72q-1.65 3.02-1.65 7.05 0 3.96 1.65 6.95 1.66 2.99 4.54 4.68t6.41 1.69m14.83 3.82q-1.15 0-1.62-.5-.47-.51-.47-1.66V362.9q0-.87.18-1.34.18-.46.65-.68t1.19-.22q.79 0 1.22.22t.65.68.22 1.26v45.87q0 .79-.18 1.29-.18.51-.62.72-.43.22-1.22.22m24.91.22q-1.65 0-3.35-.33-1.69-.32-3.24-.93-1.54-.62-2.84-1.44-1.3-.83-2.09-1.84-.5-.72-.72-1.22-.21-.51-.03-.94t.68-.79q.79-.87 1.51-.72.72.14 1.87 1.37.65.72 1.66 1.33t2.16 1.04 2.3.65 2.16.22q3.96 0 6.41-1.55t2.45-4.21q0-1.37-.5-2.42-.51-1.04-1.37-1.76t-1.98-1.26-2.45-.94-2.7-.75q-2.02-.51-4-1.12t-3.56-1.55-2.56-2.44q-.97-1.52-.97-3.89 0-2.74 1.41-4.75 1.4-2.02 3.92-3.17t5.83-1.15q1.66 0 3.1.25t2.7.75 2.37 1.19 2.06 1.62q.86.79.93 1.44t-.5 1.37q-.65.72-1.37.83t-1.51-.69q-1.15-1.15-2.41-1.83t-2.6-1.05-2.77-.36q-2.09 0-3.74.69t-2.56 1.94-.9 2.92q0 1.22.61 2.05.62.83 1.62 1.4 1.01.58 2.38 1.01t2.88.87q2.16.57 4.39 1.26 2.23.68 4.07 1.8 1.84 1.11 2.99 2.91t1.15 4.68q0 4.32-3.64 6.91-3.63 2.6-9.25 2.6"/><path fill="#1cb0f6" fill-rule="evenodd" d="M238.9 410.85q-4.24 0-7.99-1.23-3.74-1.22-6.84-3.49t-5.33-5.47-3.45-7.13-1.23-8.39q0-4.39 1.23-8.2 1.22-3.82 3.45-6.84t5.33-5.22 6.84-3.39 7.99-1.26q3.6 0 6.12.69t4.11 1.47 2.23 1.23q.86.5 1.69 1.18.83.69.97 1.48.15.72-.03 1.08t-.4.72q-.29.5-.72.72t-.93.22q-.65 0-1.16-.44-.5-.43-1.29-.93-.43-.29-1.87-1.01t-3.71-1.37-5.29-.65q-4.32 0-8.03 1.52-3.71 1.51-6.45 4.28-2.73 2.77-4.24 6.59t-1.52 8.49 1.52 8.54q1.51 3.85 4.24 6.62t6.45 4.28 8.03 1.52q3.02 0 5.29-.65t3.71-1.41l1.87-.97q.79-.43 1.29-.86.51-.43 1.16-.43.5 0 .93.18t.72.68q.22.29.4.72t.03 1.15q-.14.79-.97 1.48t-1.69 1.19q-.65.36-2.27 1.18-1.62.83-4.14 1.48t-6.05.65m27.8.07q-.8 0-1.26-.22-.47-.21-.65-.72-.18-.5-.18-1.29v-45.87q0-.79.21-1.26.22-.46.69-.68t1.26-.22 1.26.22.65.68.18 1.34v19.36q1.87-2.3 4.57-4.06 2.7-1.77 6.73-1.77 4.1 0 7.34 1.84 3.24 1.83 5.15 5.25t1.91 8.32v16.92q0 .79-.18 1.26t-.61.65-1.23.18-1.26-.22-.64-.68-.18-1.26v-16.92q0-3.53-1.16-6.12-1.15-2.59-3.45-4.03t-5.83-1.44q-4.83 0-7.78 2.73-2.95 2.74-3.38 7.35v18.5q0 .79-.22 1.26t-.68.68q-.47.22-1.26.22m52.92.29q-3.6 0-6.77-1.37t-5.58-3.74-3.78-5.55-1.37-6.77q0-3.67 1.33-6.8t3.75-5.54 5.54-3.75 6.73-1.33q4.83 0 8.71 2.27t6.2 6.19q2.3 3.92 2.3 8.89 0 3.75-1.33 6.91t-3.67 5.55q-2.34 2.37-5.44 3.71t-6.62 1.33m-.15-3.89q3.67 0 6.66-1.84 2.99-1.83 4.75-4.96 1.77-3.14 1.77-6.95 0-3.89-1.73-6.91t-4.72-4.72-6.8-1.69q-3.74 0-6.73 1.76-2.99 1.77-4.75 4.79-1.77 3.02-1.77 6.84 0 3.89 1.77 6.98 1.76 3.1 4.78 4.9t6.77 1.8m28.87 3.6q-.72 0-1.15-.22-.43-.21-.61-.72-.18-.5-.18-1.29v-30.03q0-.86.18-1.33t.61-.61 1.23-.14q.72 0 1.18.14.47.14.69.61t.21 1.33v3.03q.72-1.23 1.44-2.23.72-1.01 1.73-1.77 1.01-.75 2.49-1.19 1.47-.43 3.7-.43 1.16 0 2.13.22.97.21 1.8.57t1.4.8.87.86q.28.43.28.86 0 .94-.79 1.59t-1.44.65q-.79 0-1.19-.26-.39-.25-.82-.61-.44-.36-1.3-.61t-2.66-.25q-1.08 0-2.38.47t-2.48 1.4q-1.19.94-1.98 2.45-.8 1.51-.8 3.6v21.02q0 .79-.18 1.26t-.64.65q-.47.18-1.34.18m43.71.14q-3.96 0-7.24-1.29-3.27-1.3-5.61-3.67t-3.64-5.62-1.3-7.2q0-4.68 2.24-8.42 2.23-3.75 6.19-5.94t9.07-2.2q3.31 0 6.05 1.01t4.75 2.73 3.13 3.96 1.12 4.61q0 3.53-1.62 4.79t-3.93 1.26h-22.68q-.14 3.82 1.91 6.55 2.05 2.74 5.19 4.21 3.13 1.48 6.3 1.48 2.08 0 3.63-.22 1.55-.21 2.67-.61 1.11-.39 1.9-.79.8-.4 1.44-.79.65-.4 1.23-.61.36-.15.83-.11t.68.39q.36.51.5.9.15.4.15.9 0 .65-1.73 1.77-1.73 1.11-4.68 2.01t-6.55.9m-13.47-19.44h21.46q1.44 0 2.23-.32t.79-2.12q0-2.38-1.47-4.36-1.48-1.98-4-3.2t-5.76-1.23q-3.6 0-6.66 1.44t-4.86 4-1.73 5.79m49.18 19.52q-1.66 0-3.35-.33-1.69-.32-3.24-.93t-2.84-1.44q-1.3-.83-2.09-1.84-.5-.72-.72-1.22-.22-.51-.04-.94t.69-.79q.79-.87 1.51-.72.72.14 1.87 1.37.65.72 1.66 1.33t2.16 1.04 2.3.65 2.16.22q3.96 0 6.41-1.55t2.45-4.21q0-1.37-.51-2.42-.5-1.04-1.36-1.76t-1.98-1.26-2.45-.94-2.7-.75q-2.02-.51-4-1.12t-3.56-1.55-2.56-2.44q-.97-1.52-.97-3.89 0-2.74 1.4-4.75 1.41-2.02 3.93-3.17t5.83-1.15q1.66 0 3.1.25t2.7.75 2.37 1.19 2.05 1.62q.87.79.94 1.44t-.5 1.37q-.65.72-1.37.83t-1.51-.69q-1.16-1.15-2.42-1.83t-2.59-1.05-2.77-.36q-2.09 0-3.74.69t-2.56 1.94-.9 2.92q0 1.22.61 2.05t1.62 1.4 2.38 1.01 2.88.87q2.16.57 4.39 1.26 2.23.68 4.07 1.8 1.83 1.11 2.99 2.91 1.15 1.8 1.15 4.68 0 4.32-3.64 6.91-3.63 2.6-9.25 2.6"/></svg>