<svg xmlns="http://www.w3.org/2000/svg" aria-label="KidChores" viewBox="0 0 492 190"><title>KidChores</title><g transform="translate(15 15)scale(.3125)"><defs><radialGradient id="d" cx="50%" cy="50%" r="50%"><stop offset="0%" stop-color="#fff" stop-opacity=".9"/><stop offset="100%" stop-color="#fff" stop-opacity="0"/></radialGradient><linearGradient id="a" x1="0" x2="0" y1="0" y2="1"><stop offset="0%" stop-color="#8bf038"/><stop offset="100%" stop-color="#6bdd12"/></linearGradient><filter id="b" width="110%" height="115%" x="-5%" y="-5%"><feDropShadow dx="0" dy="4" flood-color="#000" flood-opacity=".3" stdDeviation="6"/></filter></defs><path fill="url(#a)" d="M246 66q10-26 20 0l46 117 125 7q28 2 7 20l-98 79 32 122q7 27-16 12l-106-68-106 68q-23 15-16-12l32-122-98-79q-21-18 7-20l125-7Z" filter="url(#b)"/><ellipse cx="222" cy="248" fill="#fff" rx="22" ry="26"/><ellipse cx="228" cy="240" fill="#1a1a2e" rx="8" ry="9"/><ellipse cx="302" cy="248" fill="#fff" rx="22" ry="26"/><ellipse cx="308" cy="240" fill="#1a1a2e" rx="8" ry="9"/><path fill="none" stroke="#fff" stroke-linecap="round" stroke-width="8" d="M222 298q20 34 40 36 20-2 40-36"/><circle cx="192" cy="290" r="16" fill="#ff9600" opacity=".3"/><circle cx="332" cy="290" r="16" fill="#ff9600" opacity=".3"/><g transform="translate(390 100)"><circle r="24" fill="url(#d)"/><path fill="none" stroke="#6bdd12" stroke-linecap="round" stroke-linejoin="round" stroke-width="5" d="m-10 2 7 7L12-6"/></g><path fill="#fff" d="m130 100 2.5 7.5 7.5 2.5-7.5 2.5-2.5 7.5-2.5-7.5-7.5-2.5 7.5-2.5Z" opacity=".8"/></g><path fill="#6bdd12" fill-rule="evenodd" d="M197.43 117.6q-.66 0-1.04-.17-.39-.18-.54-.57t-.15-1.04V77.8q0-.65.18-1.04t.57-.54 1.04-.15 1.04.19.56.56.18 1.04v16.43l19.94-17.68q.53-.47.91-.6.4-.11.78.06.39.19.8.66.72.77.65 1.31-.05.54-.82 1.19l-19.76 17.5 20.05 17.79q.77.65.83 1.19.07.53-.65 1.3-.41.48-.8.66t-.78.05-.92-.6l-20.23-17.9v16.66q0 .65-.18 1.04-.17.4-.56.54t-1.1.15m36.17 0q-.6 0-.98-.17t-.53-.57-.15-1.04V90.95q0-.65.15-1.04.15-.38.53-.53.39-.15 1.04-.15.66 0 1.02.17.35.19.5.57t.15 1.1v24.81q0 .65-.15 1.04-.15.4-.54.54t-1.04.15m0-36.94q-.83 0-1.3-.24t-.7-.78q-.2-.53-.2-1.36t.2-1.31.72-.68q.51-.22 1.34-.22t1.31.24.69.75q.2.5.2 1.4 0 .77-.2 1.27-.22.5-.69.72-.48.21-1.37.21m24.34 36.95q-2.74 0-5.15-1.01-2.4-1.02-4.19-2.92-1.78-1.9-2.8-4.55t-1.01-5.86q0-3.16 1-5.74 1.03-2.59 2.81-4.47 1.79-1.87 4.19-2.88 2.41-1.02 5.15-1.02 2.92 0 5.35 1.02 2.44 1 4.23 2.92 1.78 1.9 2.76 4.52.99 2.62.99 5.82 0 3.22-.99 5.8-.98 2.6-2.76 4.47-1.79 1.87-4.23 2.89-2.43 1-5.35 1m.54-3.16q2.97 0 5.3-1.4 2.3-1.4 3.68-3.86 1.37-2.47 1.37-5.75 0-3.33-1.37-5.82t-3.72-3.9-5.26-1.4-5.3 1.4q-2.38 1.4-3.75 3.9t-1.37 5.82q0 3.28 1.37 5.75t3.75 3.86 5.3 1.4m12.25 3.16q-.95 0-1.34-.41-.39-.43-.39-1.38v-37.9q0-.71.15-1.1.15-.38.54-.56t.98-.19q.66 0 1.01.19.36.18.54.56t.18 1.04v37.9q0 .66-.15 1.07t-.51.6-1 .18"/><path fill="#47c2ff" fill-rule="evenodd" d="M305.37 117.55q-3.5 0-6.6-1.02-3.09-1-5.65-2.88t-4.4-4.52q-1.85-2.65-2.86-5.9-1.01-3.23-1.01-6.93 0-3.62 1.01-6.77 1.01-3.16 2.85-5.66 1.85-2.5 4.4-4.3 2.57-1.83 5.66-2.81t6.6-1.04q2.98 0 5.06.57t3.4 1.21q1.3.66 1.84 1.02.71.41 1.4.97t.8 1.23q.12.6-.03.89t-.33.6q-.24.4-.6.59-.35.18-.76.18-.54 0-.96-.36t-1.06-.77q-.36-.24-1.55-.83-1.19-.6-3.07-1.14t-4.37-.53q-3.57 0-6.63 1.25t-5.33 3.54-3.5 5.45q-1.26 3.14-1.26 7.01t1.25 7.06 3.5 5.47q2.27 2.29 5.34 3.54t6.63 1.25q2.5 0 4.37-.53 1.88-.54 3.07-1.17l1.55-.8q.65-.36 1.06-.71.42-.36.96-.36.41 0 .77.15.35.15.6.56.18.24.32.6.15.35.03.95-.12.65-.8 1.22t-1.4.99q-.54.3-1.88.97-1.33.69-3.42 1.22-2.08.54-5 .54m22.98.06q-.66 0-1.04-.18-.4-.18-.54-.6-.15-.41-.15-1.06V77.86q0-.65.17-1.04.19-.38.57-.56.4-.19 1.05-.19t1.04.19.53.56q.15.39.15 1.1v16q1.55-1.9 3.78-3.35t5.56-1.46q3.39 0 6.07 1.52 2.67 1.5 4.25 4.33t1.58 6.88v13.98q0 .66-.15 1.04-.15.4-.5.54-.36.15-1.02.15-.65 0-1.04-.18-.38-.17-.53-.56-.15-.4-.15-1.04v-13.99q0-2.91-.96-5.05-.95-2.15-2.85-3.34t-4.81-1.19q-4 0-6.43 2.26-2.44 2.27-2.8 6.07v15.3q0 .65-.18 1.03-.18.4-.56.57-.39.18-1.04.18m43.73.24q-2.97 0-5.6-1.13-2.61-1.14-4.6-3.1-2-1.96-3.13-4.58t-1.13-5.6q0-3.03 1.1-5.62 1.1-2.58 3.1-4.57 1.99-2 4.58-3.1t5.56-1.1q3.99 0 7.2 1.87t5.12 5.12q1.9 3.24 1.9 7.35 0 3.1-1.1 5.7-1.1 2.63-3.03 4.6-1.94 1.95-4.5 3.06-2.56 1.1-5.47 1.1m-.12-3.22q3.03 0 5.5-1.52 2.47-1.51 3.93-4.1 1.46-2.6 1.46-5.74 0-3.21-1.43-5.71t-3.9-3.9-5.62-1.4q-3.1 0-5.56 1.46-2.47 1.46-3.93 3.96t-1.46 5.65q0 3.21 1.46 5.77t3.95 4.05 5.6 1.48m23.85 2.98q-.59 0-.95-.18-.35-.18-.5-.6-.15-.41-.15-1.06V90.95q0-.71.15-1.1t.5-.5 1.02-.12q.6 0 .98.12t.57.5q.17.39.17 1.1v2.5q.6-1.01 1.19-1.84.6-.83 1.43-1.46.83-.62 2.06-.99 1.21-.35 3.06-.35.95 0 1.76.18.8.17 1.48.47.69.3 1.16.66.48.36.72.71.23.36.23.71 0 .78-.65 1.32-.66.53-1.2.53-.65 0-.98-.21t-.67-.5q-.37-.3-1.08-.5-.7-.21-2.2-.21-.89 0-1.96.38-1.08.38-2.05 1.16-.99.78-1.64 2.03-.66 1.24-.66 2.97v17.37q0 .65-.15 1.04-.15.4-.53.54-.39.15-1.1.15m36.13.11q-3.28 0-5.99-1.06-2.7-1.08-4.63-3.03-1.94-1.97-3.01-4.65t-1.07-5.95q0-3.87 1.85-6.96 1.84-3.1 5.11-4.9 3.27-1.82 7.5-1.82 2.73 0 5 .83 2.25.83 3.92 2.26t2.59 3.27.92 3.8q0 2.93-1.33 3.97-1.34 1.04-3.25 1.04H420.8q-.12 3.15 1.57 5.41 1.7 2.27 4.3 3.48 2.58 1.22 5.2 1.22 1.72 0 3-.18t2.2-.5 1.58-.66q.66-.33 1.19-.65.53-.33 1.01-.5.3-.13.69-.1t.56.33q.3.42.41.74.13.33.13.75 0 .53-1.43 1.46t-3.87 1.66-5.41.74m-11.13-16.06h17.73q1.19 0 1.84-.27.66-.26.66-1.75 0-1.96-1.22-3.6t-3.3-2.65-4.76-1.01q-2.98 0-5.5 1.19-2.54 1.19-4.03 3.3-1.48 2.11-1.42 4.79m40.64 16.13q-1.37 0-2.77-.27t-2.68-.77q-1.28-.51-2.35-1.2t-1.72-1.51q-.42-.6-.6-1.01t-.03-.78q.15-.35.57-.65.65-.72 1.25-.6t1.54 1.14q.54.6 1.37 1.1t1.79.86q.95.35 1.9.53t1.79.19q3.27 0 5.3-1.29 2.02-1.28 2.02-3.48 0-1.13-.42-2-.42-.85-1.13-1.45-.72-.6-1.63-1.04-.93-.45-2.03-.78-1.1-.32-2.23-.62-1.67-.42-3.3-.92-1.64-.5-2.95-1.28-1.31-.77-2.11-2.02-.8-1.26-.8-3.21 0-2.27 1.15-3.93 1.17-1.67 3.25-2.62t4.82-.95q1.37 0 2.56.2t2.23.63 1.96.98 1.7 1.34q.71.65.77 1.19t-.41 1.13q-.54.6-1.14.69t-1.24-.57q-.96-.95-2-1.52t-2.14-.86-2.3-.3q-1.72 0-3.08.57-1.37.56-2.12 1.6-.74 1.04-.74 2.42 0 1 .5 1.69t1.34 1.16q.84.48 1.97.83 1.13.36 2.38.72 1.78.47 3.63 1.04 1.84.56 3.36 1.49t2.47 2.4q.95 1.5.95 3.87 0 3.57-3 5.71t-7.65 2.15"/></svg>