<svg xmlns="http://www.w3.org/2000/svg" aria-label="KidsChores" viewBox="0 0 520 190"><title>KidsChores</title><g transform="translate(15 15)scale(.3125)"><defs><radialGradient id="d" cx="50%" cy="50%" r="50%"><stop offset="0%" stop-color="#fff" stop-opacity=".9"/><stop offset="100%" stop-color="#fff" stop-opacity="0"/></radialGradient><linearGradient id="a" x1="0" x2="0" y1="0" y2="1"><stop offset="0%" stop-color="#7ae82a"/><stop offset="100%" stop-color="#58cc02"/></linearGradient><filter id="b" width="110%" height="115%" x="-5%" y="-5%"><feDropShadow dx="0" dy="4" flood-color="#2b7a0b" flood-opacity=".25" stdDeviation="6"/></filter></defs><path fill="url(#a)" d="M246 66q10-26 20 0l46 117 125 7q28 2 7 20l-98 79 32 122q7 27-16 12l-106-68-106 68q-23 15-16-12l32-122-98-79q-21-18 7-20l125-7Z" filter="url(#b)"/><ellipse cx="222" cy="248" fill="#1a1a2e" rx="22" ry="26"/><ellipse cx="228" cy="240" fill="#fff" rx="8" ry="9"/><ellipse cx="302" cy="248" fill="#1a1a2e" rx="22" ry="26"/><ellipse cx="308" cy="240" fill="#fff" rx="8" ry="9"/><path fill="none" stroke="#1a1a2e" stroke-linecap="round" stroke-width="8" d="M222 298q20 34 40 36 20-2 40-36"/><circle cx="192" cy="290" r="16" fill="#ff9600" opacity=".25"/><circle cx="332" cy="290" r="16" fill="#ff9600" opacity=".25"/><g transform="translate(390 100)"><circle r="24" fill="url(#d)"/><path fill="none" stroke="#58cc02" stroke-linecap="round" stroke-linejoin="round" stroke-width="5" d="m-10 2 7 7L12-6"/></g><path fill="#fff" d="m130 100 2.5 7.5 7.5 2.5-7.5 2.5-2.5 7.5-2.5-7.5-7.5-2.5 7.5-2.5Z" opacity=".7"/></g><path fill="#58cc02" fill-rule="evenodd" d="M197.43 117.6q-.66 0-1.04-.17-.39-.18-.54-.57t-.15-1.04V77.8q0-.65.18-1.04t.57-.54 1.04-.15 1.04.19.56.56.18 1.04v16.43l19.94-17.68q.53-.47.91-.6.4-.11.78.06.39.19.8.66.72.77.65 1.31-.05.54-.82 1.19l-19.76 17.5 20.05 17.79q.77.65.83 1.19.07.53-.65 1.3-.41.48-.8.66t-.78.05-.92-.6l-20.23-17.9v16.66q0 .65-.18 1.04-.17.4-.56.54t-1.1.15m36.17 0q-.6 0-.98-.17t-.53-.57-.15-1.04V90.95q0-.65.15-1.04.15-.38.53-.53.39-.15 1.04-.15.66 0 1.02.17.35.19.5.57t.15 1.1v24.81q0 .65-.15 1.04-.15.4-.54.54t-1.04.15m0-36.94q-.83 0-1.3-.24t-.7-.78q-.2-.53-.2-1.36t.2-1.31.72-.68q.51-.22 1.34-.22t1.31.24.69.75q.2.5.2 1.4 0 .77-.2 1.27-.22.5-.69.72-.48.21-1.37.21m24.34 36.95q-2.74 0-5.15-1.01-2.4-1.02-4.19-2.92-1.78-1.9-2.8-4.55t-1.01-5.86q0-3.16 1-5.74 1.03-2.59 2.81-4.47 1.79-1.87 4.19-2.88 2.41-1.02 5.15-1.02 2.92 0 5.35 1.02 2.44 1 4.23 2.92 1.78 1.9 2.76 4.52.99 2.62.99 5.82 0 3.22-.99 5.8-.98 2.6-2.76 4.47-1.79 1.87-4.23 2.89-2.43 1-5.35 1m.54-3.16q2.97 0 5.3-1.4 2.3-1.4 3.68-3.86 1.37-2.47 1.37-5.75 0-3.33-1.37-5.82t-3.72-3.9-5.26-1.4-5.3 1.4q-2.38 1.4-3.75 3.9t-1.37 5.82q0 3.28 1.37 5.75t3.75 3.86 5.3 1.4m12.25 3.16q-.95 0-1.34-.41-.39-.43-.39-1.38v-37.9q0-.71.15-1.1.15-.38.54-.56t.98-.19q.66 0 1.01.19.36.18.54.56t.18 1.04v37.9q0 .66-.15 1.07t-.51.6-1 .18m20.59.18q-1.37 0-2.77-.27t-2.68-.77q-1.27-.51-2.35-1.2-1.07-.68-1.72-1.51-.42-.6-.6-1.01t-.02-.78q.15-.35.56-.65.65-.72 1.25-.6t1.54 1.14q.54.6 1.37 1.1t1.79.86q.95.35 1.9.53.96.19 1.78.19 3.28 0 5.3-1.29 2.03-1.28 2.03-3.48 0-1.13-.42-2-.42-.85-1.13-1.45-.72-.6-1.64-1.04t-2.02-.78q-1.1-.32-2.23-.62-1.67-.42-3.3-.92-1.64-.5-2.95-1.28-1.3-.77-2.11-2.02-.8-1.26-.8-3.21 0-2.27 1.16-3.93t3.24-2.62 4.82-.95q1.37 0 2.56.2t2.23.63 1.96.98 1.7 1.34q.71.65.77 1.19t-.41 1.13q-.54.6-1.14.69t-1.24-.57q-.95-.95-2-1.52-1.04-.57-2.14-.86t-2.3-.3q-1.72 0-3.08.57-1.38.56-2.12 1.6t-.74 2.42q0 1 .5 1.69.51.69 1.34 1.16.83.48 1.97.83 1.13.36 2.38.72 1.78.47 3.62 1.04 1.85.56 3.37 1.49t2.47 2.4q.95 1.5.95 3.87 0 3.57-3 5.71t-7.65 2.15"/><path fill="#1cb0f6" fill-rule="evenodd" d="M333.97 117.55q-3.5 0-6.6-1.02-3.1-1-5.66-2.88-2.55-1.88-4.4-4.52-1.85-2.65-2.85-5.9-1.02-3.23-1.02-6.93 0-3.62 1.02-6.77 1-3.16 2.85-5.66t4.4-4.3 5.65-2.81 6.6-1.04q2.98 0 5.06.57 2.09.56 3.4 1.21 1.3.66 1.84 1.02.71.41 1.4.97t.8 1.23q.13.6-.02.89t-.33.6q-.24.4-.6.59-.35.18-.77.18-.53 0-.96-.36-.4-.36-1.06-.77-.36-.24-1.55-.83-1.19-.6-3.06-1.14t-4.37-.53q-3.57 0-6.64 1.25t-5.33 3.54-3.5 5.45Q317 92.73 317 96.6t1.26 7.06q1.24 3.18 3.5 5.47t5.33 3.54 6.64 1.25q2.5 0 4.37-.53 1.87-.54 3.06-1.17l1.55-.8q.65-.36 1.06-.71.43-.36.96-.36.42 0 .77.15t.6.56q.18.24.33.6.15.35.02.95-.11.65-.8 1.22t-1.4.99q-.53.3-1.87.97-1.34.69-3.42 1.22-2.09.54-5 .54m22.97.06q-.66 0-1.04-.18-.39-.18-.54-.6-.15-.41-.15-1.06V77.86q0-.65.18-1.04.18-.38.57-.56t1.04-.19 1.04.19.54.56.15 1.1v16q1.54-1.9 3.77-3.35t5.56-1.46q3.4 0 6.07 1.52 2.68 1.5 4.26 4.33t1.57 6.88v13.98q0 .66-.14 1.04-.15.4-.5.54-.36.15-1.02.15t-1.05-.18q-.38-.17-.52-.56-.15-.4-.15-1.04v-13.99q0-2.91-.96-5.05-.95-2.15-2.85-3.34t-4.82-1.19q-4 0-6.43 2.26-2.44 2.27-2.8 6.07v15.3q0 .65-.18 1.03-.18.4-.56.57-.39.18-1.04.18m43.73.24q-2.97 0-5.6-1.13-2.61-1.14-4.6-3.1-2-1.96-3.13-4.58t-1.13-5.6q0-3.03 1.1-5.62 1.1-2.58 3.1-4.57t4.58-3.1 5.56-1.1q4 0 7.2 1.87t5.12 5.12q1.9 3.24 1.9 7.35 0 3.1-1.1 5.7-1.1 2.63-3.03 4.6-1.93 1.95-4.5 3.06-2.56 1.1-5.47 1.1m-.12-3.22q3.03 0 5.5-1.52 2.48-1.51 3.93-4.1 1.46-2.6 1.46-5.74 0-3.21-1.43-5.71t-3.9-3.9-5.62-1.4q-3.09 0-5.56 1.46T391 97.68q-1.47 2.5-1.47 5.65 0 3.21 1.47 5.77 1.45 2.56 3.95 4.05t5.59 1.48m23.86 2.98q-.6 0-.95-.18-.36-.18-.5-.6-.15-.41-.15-1.06V90.95q0-.71.14-1.1t.5-.5 1.02-.12q.6 0 .98.12.39.11.57.5t.17 1.1v2.5q.6-1.01 1.2-1.84.59-.83 1.42-1.46.84-.62 2.06-.99 1.22-.35 3.06-.35.96 0 1.76.18t1.49.47q.68.3 1.15.66.48.36.72.71.23.36.23.71 0 .78-.65 1.32-.65.53-1.19.53-.65 0-.98-.21t-.68-.5q-.36-.3-1.07-.5t-2.2-.21q-.9 0-1.97.38t-2.05 1.16-1.64 2.03-.66 2.97v17.37q0 .65-.15 1.04-.14.4-.52.54-.4.15-1.11.15m36.12.11q-3.27 0-5.98-1.06-2.7-1.08-4.64-3.03-1.93-1.97-3-4.65-1.08-2.68-1.08-5.95 0-3.87 1.85-6.96 1.84-3.1 5.12-4.9 3.27-1.82 7.5-1.82 2.73 0 4.99.83t3.93 2.26 2.58 3.27q.93 1.85.93 3.8 0 2.93-1.34 3.97t-3.25 1.04H449.4q-.12 3.15 1.58 5.41t4.29 3.48q2.58 1.22 5.2 1.22 1.72 0 3-.18t2.2-.5 1.58-.66q.66-.33 1.19-.65.54-.33 1.02-.5.3-.13.68-.1t.56.33q.3.42.42.74.12.33.12.75 0 .53-1.43 1.46t-3.87 1.66-5.41.74m-11.13-16.06h17.73q1.2 0 1.85-.27.65-.26.65-1.75 0-1.96-1.22-3.6t-3.3-2.65-4.76-1.01q-2.98 0-5.5 1.19t-4.02 3.3-1.43 4.79m40.64 16.13q-1.37 0-2.77-.27t-2.67-.77q-1.29-.51-2.35-1.2-1.08-.68-1.73-1.51-.41-.6-.6-1.01-.18-.42-.03-.78.15-.35.57-.65.66-.72 1.25-.6.6.12 1.55 1.14.53.6 1.37 1.1.83.5 1.78.86.95.35 1.9.53t1.79.19q3.27 0 5.3-1.29 2.02-1.28 2.02-3.48 0-1.13-.42-2-.41-.85-1.12-1.45t-1.64-1.04q-.93-.45-2.03-.78-1.1-.32-2.23-.62-1.67-.42-3.3-.92-1.64-.5-2.94-1.28-1.32-.77-2.12-2.02-.8-1.26-.8-3.21 0-2.27 1.16-3.93t3.24-2.62 4.82-.95q1.37 0 2.56.2 1.2.21 2.23.63 1.05.42 1.96.98.93.57 1.7 1.34.72.65.77 1.19t-.4 1.13q-.55.6-1.14.69-.6.09-1.25-.57-.96-.95-2-1.52t-2.14-.86-2.29-.3q-1.73 0-3.09.57-1.37.56-2.12 1.6-.74 1.04-.74 2.42 0 1 .5 1.69t1.34 1.16q.84.48 1.97.83 1.13.36 2.38.72 1.79.47 3.63 1.04 1.84.56 3.36 1.49t2.47 2.4q.95 1.5.95 3.87 0 3.57-3 5.71t-7.65 2.15"/></svg>